<svg xmlns="http://www.w3.org/2000/svg" version="1.1" xmlns:xlink="http://www.w3.org/1999/xlink" xmlns:svgjs="http://svgjs.dev/svgjs" width="1000" height="1000" viewBox="0 0 1000 1000"><rect width="1000" height="1000" fill="#ffffff"></rect><g transform="matrix(0.7,0,0,0.7,149.57577168294722,434.76238732913544)"><svg viewBox="0 0 396 74" data-background-color="#ffffff" preserveAspectRatio="xMidYMid meet" height="186" width="1000" xmlns="http://www.w3.org/2000/svg" xmlns:xlink="http://www.w3.org/1999/xlink"><defs></defs><g id="tight-bounds" transform="matrix(1,0,0,1,0.23999229382809517,0.07821303874024466)"><svg viewBox="0 0 395.52 73.84357392251951" height="73.84357392251951" width="395.52"><g><svg viewBox="0 0 395.52 73.84357392251951" height="73.84357392251951" width="395.52"><g><svg viewBox="0 0 516.8490613417473 96.49570658367249" height="73.84357392251951" width="395.52"><g><rect width="8.146434114176339" height="96.49570658367249" x="91.85688347318268" y="0" fill="#096a2e" opacity="1" stroke-width="0" stroke="transparent" fill-opacity="1" class="rect-o-0" data-fill-palette-color="primary" rx="1%" id="o-0" data-palette-color="#096a2e"></rect></g><g transform="matrix(1,0,0,1,121.32906134174735,0.2400390711036593)"><svg viewBox="0 0 395.52 96.01562844146517" height="96.01562844146517" width="395.52"><g><svg viewBox="0 0 395.52 96.01562844146517" height="96.01562844146517" width="395.52"><g><svg viewBox="0 0 395.52 96.01562844146517" height="96.01562844146517" width="395.52"><g transform="matrix(1,0,0,1,0,0)"><svg width="395.52" viewBox="2.7499983310699463 -34.650001525878906 208.84999084472656 47.70000076293945" height="96.01562844146517" data-palette-color="#096a2e"><svg></svg><g class="undefined-text-0" data-fill-palette-color="primary" id="text-0"><path d="M16.25-25.5c2.833 0 4.993 1.007 6.48 3.02 1.48 2.02 2.22 5.03 2.22 9.03v0 11.55c0 0.633-0.217 1.107-0.65 1.42-0.433 0.32-1.017 0.48-1.75 0.48v0c-0.733 0-1.35-0.15-1.85-0.45-0.5-0.3-0.75-0.75-0.75-1.35v0l0.05-11.7c0-2.767-0.31-4.777-0.93-6.03-0.613-1.247-1.703-1.87-3.27-1.87v0c-3 0-4.95 2.4-5.85 7.2v0c-0.3 1.467-0.45 3.233-0.45 5.3v0l0.05 7.1c0 0.6-0.217 1.057-0.65 1.37-0.433 0.32-1.017 0.48-1.75 0.48v0c-0.8 0-1.423-0.177-1.87-0.53-0.453-0.347-0.68-0.787-0.68-1.32v0c0-3.333-0.067-7.2-0.2-11.6v0c-0.067-2.6-0.1-4.4-0.1-5.4v0c-0.033-0.733-0.14-1.31-0.32-1.73-0.187-0.413-0.53-1.037-1.03-1.87v0c-0.133-0.333-0.2-0.617-0.2-0.85v0c0-0.5 0.283-0.967 0.85-1.4 0.567-0.433 1.117-0.65 1.65-0.65v0c0.567 0 1.117 0.367 1.65 1.1v0c0.9 1.3 1.35 2.483 1.35 3.55v0 0.6c0.6-1.567 1.543-2.867 2.83-3.9 1.28-1.033 3.003-1.55 5.17-1.55zM39.05 13.05c-0.733 0-1.35-0.223-1.85-0.67-0.5-0.453-0.75-0.997-0.75-1.63v0c0-0.3 0.067-0.583 0.2-0.85v0c1.533-3.967 3-7.917 4.4-11.85v0c-1.433-0.967-2.893-2.643-4.38-5.03-1.48-2.38-2.803-5.013-3.97-7.9-1.167-2.88-2.033-5.503-2.6-7.87v0c-0.067-0.267-0.1-0.517-0.1-0.75v0c0-0.567 0.227-1.033 0.68-1.4 0.447-0.367 1.037-0.55 1.77-0.55v0c0.633 0 1.093 0.133 1.38 0.4 0.28 0.267 0.487 0.683 0.62 1.25v0c2.867 9.6 5.617 15.283 8.25 17.05v0c1.167-4 2.717-9.767 4.65-17.3v0c0.167-0.567 0.4-0.967 0.7-1.2 0.3-0.233 0.75-0.35 1.35-0.35v0c0.8 0 1.443 0.173 1.93 0.52 0.48 0.353 0.753 0.813 0.82 1.38v0c0.033 0.133 0.017 0.317-0.05 0.55v0c-1 4-1.9 7.433-2.7 10.3-0.8 2.867-1.7 5.783-2.7 8.75v0c-0.767 2.3-1.707 5.05-2.82 8.25-1.12 3.2-2.013 5.633-2.68 7.3v0c-0.2 0.533-0.46 0.933-0.78 1.2-0.313 0.267-0.77 0.4-1.37 0.4zM69.55 0.1c-3.933 0-7.143-1.043-9.63-3.13-2.48-2.08-3.72-5.203-3.72-9.37v0c0-2.633 0.523-4.967 1.57-7 1.053-2.033 2.553-3.617 4.5-4.75 1.953-1.133 4.263-1.7 6.93-1.7v0c2.6 0 4.923 0.55 6.97 1.65 2.053 1.1 3.653 2.673 4.8 4.72 1.153 2.053 1.73 4.447 1.73 7.18v0c0 4-1.2 7.067-3.6 9.2-2.4 2.133-5.583 3.2-9.55 3.2zM69.45-3.85c2.467 0 4.467-0.727 6-2.18 1.533-1.447 2.3-3.57 2.3-6.37v0c0-1.8-0.343-3.427-1.03-4.88-0.68-1.447-1.66-2.58-2.94-3.4-1.287-0.813-2.763-1.22-4.43-1.22v0c-2.467 0-4.443 0.857-5.93 2.57-1.48 1.72-2.22 4.013-2.22 6.88v0c0 2.933 0.783 5.1 2.35 6.5 1.567 1.4 3.533 2.1 5.9 2.1zM100.65-25.5c2.833 0 4.993 1.007 6.48 3.02 1.48 2.02 2.22 5.03 2.22 9.03v0 11.55c0 0.633-0.217 1.107-0.65 1.42-0.433 0.32-1.017 0.48-1.75 0.48v0c-0.733 0-1.35-0.15-1.85-0.45-0.5-0.3-0.75-0.75-0.75-1.35v0l0.05-11.7c0-2.767-0.307-4.777-0.92-6.03-0.62-1.247-1.713-1.87-3.28-1.87v0c-3 0-4.95 2.4-5.85 7.2v0c-0.3 1.467-0.45 3.233-0.45 5.3v0l0.05 7.1c0 0.6-0.217 1.057-0.65 1.37-0.433 0.32-1.017 0.48-1.75 0.48v0c-0.8 0-1.423-0.177-1.87-0.53-0.453-0.347-0.68-0.787-0.68-1.32v0c0-3.333-0.067-7.2-0.2-11.6v0c-0.067-2.6-0.1-4.4-0.1-5.4v0c-0.033-0.733-0.14-1.31-0.32-1.73-0.187-0.413-0.53-1.037-1.03-1.87v0c-0.133-0.333-0.2-0.617-0.2-0.85v0c0-0.5 0.283-0.967 0.85-1.4 0.567-0.433 1.117-0.65 1.65-0.65v0c0.567 0 1.117 0.367 1.65 1.1v0c0.9 1.3 1.35 2.483 1.35 3.55v0 0.6c0.6-1.567 1.543-2.867 2.83-3.9 1.28-1.033 3.003-1.55 5.17-1.55zM138.65-8.55l0.2 1.4c0.267 1.767 0.46 3.15 0.58 4.15 0.113 1 0.17 1.967 0.17 2.9v0c0 2.467-0.51 4.65-1.53 6.55-1.013 1.9-2.443 3.383-4.29 4.45-1.853 1.067-3.997 1.6-6.43 1.6v0c-1.867 0-3.583-0.367-5.15-1.1-1.567-0.733-2.817-1.733-3.75-3-0.933-1.267-1.4-2.633-1.4-4.1v0c0-1.267 0.783-1.9 2.35-1.9v0c1 0 1.6 0.483 1.8 1.45v0c0.333 1.533 1.027 2.677 2.08 3.43 1.047 0.747 2.37 1.12 3.97 1.12v0c2.4 0 4.243-0.733 5.53-2.2 1.28-1.467 1.92-3.6 1.92-6.4v0c0-0.9-0.083-1.9-0.25-3v0c-0.767 0.933-1.81 1.69-3.13 2.27-1.313 0.587-2.82 0.88-4.52 0.88v0c-2.4 0-4.527-0.56-6.38-1.68-1.847-1.113-3.27-2.62-4.27-4.52-1-1.9-1.5-3.967-1.5-6.2v0c0-2.3 0.493-4.433 1.48-6.4 0.98-1.967 2.38-3.527 4.2-4.68 1.813-1.147 3.887-1.72 6.22-1.72v0c2.6 0 4.65 0.65 6.15 1.95v0c0.133-0.4 0.433-1.133 0.9-2.2v0c0.333-0.667 0.883-1 1.65-1v0c0.633 0 1.24 0.173 1.82 0.52 0.587 0.353 0.897 0.797 0.93 1.33v0c0 0.233-0.017 0.4-0.05 0.5v0c-0.567 1.8-0.9 2.933-1 3.4v0zM127.05-4.25c1.467 0 2.89-0.4 4.27-1.2 1.387-0.8 2.213-1.667 2.48-2.6v0c-0.2-1.9-0.583-4.517-1.15-7.85v0c-0.033-0.333-0.167-1.183-0.4-2.55v0c-0.3-0.633-0.957-1.233-1.97-1.8-1.02-0.567-2.163-0.85-3.43-0.85v0c-1.4 0-2.65 0.373-3.75 1.12-1.1 0.753-1.957 1.787-2.57 3.1-0.62 1.32-0.93 2.78-0.93 4.38v0c0 2.3 0.643 4.25 1.93 5.85 1.28 1.6 3.12 2.4 5.52 2.4zM156.75 0.1c-3.933 0-7.14-1.043-9.62-3.13-2.487-2.08-3.73-5.203-3.73-9.37v0c0-2.633 0.523-4.967 1.57-7 1.053-2.033 2.553-3.617 4.5-4.75 1.953-1.133 4.263-1.7 6.93-1.7v0c2.6 0 4.927 0.55 6.98 1.65 2.047 1.1 3.643 2.673 4.79 4.72 1.153 2.053 1.73 4.447 1.73 7.18v0c0 4-1.2 7.067-3.6 9.2-2.4 2.133-5.583 3.2-9.55 3.2zM156.65-3.85c2.467 0 4.467-0.727 6-2.18 1.533-1.447 2.3-3.57 2.3-6.37v0c0-1.8-0.343-3.427-1.03-4.88-0.68-1.447-1.663-2.58-2.95-3.4-1.28-0.813-2.753-1.22-4.42-1.22v0c-2.467 0-4.44 0.857-5.92 2.57-1.487 1.72-2.23 4.013-2.23 6.88v0c0 2.933 0.783 5.1 2.35 6.5 1.567 1.4 3.533 2.1 5.9 2.1zM194.05 0.15c-0.233-0.033-1.083-0.117-2.55-0.25-1.467-0.133-3.1-0.2-4.9-0.2v0c-1.767 0-3.917 0.067-6.45 0.2v0c-1.333 0.1-2.4 0.15-3.2 0.15v0c-2.333 0-3.5-0.633-3.5-1.9v0c0-0.633 0.333-1.283 1-1.95v0c6.433-6.833 11.967-12.617 16.6-17.35v0l-2.1 0.15c-2 0.2-3.733 0.3-5.2 0.3v0c-1.333 0-2.623-0.06-3.87-0.18-1.253-0.113-2.197-0.253-2.83-0.42v0c-1.267-0.267-1.9-0.95-1.9-2.05v0c0-0.6 0.167-1.11 0.5-1.53 0.333-0.413 0.817-0.587 1.45-0.52v0c3.2 0.433 6.05 0.65 8.55 0.65v0c1.5 0 3.35-0.1 5.55-0.3v0c1.4-0.167 2.533-0.25 3.4-0.25v0c1.233 0 2.057 0.15 2.47 0.45 0.42 0.3 0.63 0.767 0.63 1.4v0c0 0.967-0.367 1.817-1.1 2.55v0l-5.7 5.75c-4.1 4.167-7.667 7.867-10.7 11.1v0l2-0.1c2.067-0.133 3.817-0.2 5.25-0.2v0c2.3 0 4.7 0.15 7.2 0.45v0c1.033 0.167 1.55 0.833 1.55 2v0c0 0.633-0.183 1.15-0.55 1.55-0.367 0.4-0.9 0.567-1.6 0.5zM207.95-27.55c-1.033 0-1.883-0.343-2.55-1.03-0.667-0.68-1-1.537-1-2.57v0c0-1 0.343-1.833 1.03-2.5 0.68-0.667 1.553-1 2.62-1v0c1.067 0 1.927 0.317 2.58 0.95 0.647 0.633 0.97 1.467 0.97 2.5v0c0 1.033-0.34 1.9-1.02 2.6-0.687 0.7-1.563 1.05-2.63 1.05zM207.25-0.3c-0.767 0-1.383-0.183-1.85-0.55-0.467-0.367-0.7-0.883-0.7-1.55v0l0.5-20.3c0-0.667 0.233-1.193 0.7-1.58 0.467-0.38 1.067-0.57 1.8-0.57v0c0.733 0 1.343 0.2 1.83 0.6 0.48 0.4 0.72 0.933 0.72 1.6v0l-0.5 20.3c-0.033 0.667-0.273 1.173-0.72 1.52-0.453 0.353-1.047 0.53-1.78 0.53z" data-fill-palette-color="primary" fill="#096a2e" opacity="1"></path></g></svg></g></svg></g></svg></g></svg></g><g transform="matrix(1,0,0,1,0,0.2400390711036593)"><svg viewBox="0 0 70.53113971879435 96.01562844146517" height="96.01562844146517" width="70.53113971879435"><g><svg xmlns="http://www.w3.org/2000/svg" xmlns:xlink="http://www.w3.org/1999/xlink" version="1.1" x="0" y="0" viewBox="13.758000373840332 0.08800000697374344 73.51600646972656 100.07899475097656" enable-background="new 0 0 100 100" xml:space="preserve" width="70.53113971879435" height="96.01562844146517" class="icon-icon-0" data-fill-palette-color="accent" id="icon-0"><g fill="#096a2e" data-fill-palette-color="accent"><polygon fill="#096a2e" points="54.079,34.286 46.144,34.286 46.144,31.243 21.692,31.243 21.692,34.286 13.758,34.286    13.758,38.365 54.079,38.365  " data-fill-palette-color="accent"></polygon><path fill="#096a2e" d="M71.872 77.169c-1.07 0.594-2.295 0.918-3.555 0.918-1.261 0-2.483-0.324-3.555-0.918-1.07 0.594-2.294 0.918-3.554 0.918s-2.484-0.324-3.555-0.918c-1.069 0.594-2.294 0.918-3.553 0.918-1.262 0-2.485-0.324-3.555-0.918-1.071 0.594-2.294 0.918-3.553 0.918-1.261 0-2.485-0.324-3.556-0.918-1.07 0.594-2.294 0.918-3.554 0.918s-2.483-0.324-3.554-0.918c-1.07 0.594-2.294 0.918-3.555 0.918v5.138 4.731 0.521 7.63 4.06h5.333V82.413H48.77v17.753h33.765V78.087c-1.259 0-2.483-0.324-3.555-0.918-1.069 0.594-2.294 0.918-3.554 0.918C74.165 78.087 72.94 77.763 71.872 77.169zM77.203 93.755H54.102V82.413h23.102V93.755z" data-fill-palette-color="accent"></path><path fill="#096a2e" d="M49.975 65.646h-7.66-4.566-4.975l-4.739 6.411h0c0 0.008 0.002 0.018 0.002 0.025 0.001 0.157 0.017 0.312 0.041 0.466 0.007 0.044 0.016 0.09 0.024 0.135 0.026 0.13 0.059 0.259 0.1 0.383 0.009 0.031 0.018 0.063 0.029 0.094 0.057 0.161 0.124 0.319 0.205 0.472 0.002 0.005 0.006 0.011 0.008 0.015 0.081 0.15 0.173 0.296 0.275 0.435 0.012 0.016 0.022 0.033 0.034 0.047 0.447 0.595 1.086 1.093 1.874 1.43 0.008 0.004 0.013 0.01 0.021 0.013 0.64 0.268 1.36 0.421 2.125 0.421 1.418 0 2.687-0.52 3.555-1.34 0.868 0.82 2.137 1.34 3.554 1.34 1.418 0 2.687-0.52 3.554-1.34 0.868 0.82 2.137 1.34 3.556 1.34 1.417 0 2.684-0.52 3.553-1.34 0.869 0.82 2.136 1.34 3.555 1.34 1.417 0 2.684-0.52 3.553-1.34 0.869 0.82 2.137 1.34 3.555 1.34 1.419 0 2.687-0.52 3.554-1.34 0.867 0.82 2.135 1.34 3.555 1.34 1.419 0 2.685-0.52 3.555-1.34 0.868 0.82 2.136 1.34 3.554 1.34 1.419 0 2.687-0.52 3.554-1.34 0.869 0.82 2.137 1.34 3.555 1.34 2.615 0 4.731-1.76 4.738-3.934h0.001l-4.739-6.411H54.079 49.975z" data-fill-palette-color="accent"></path><rect x="13.758" y="88.943" fill="#096a2e" width="17.832" height="7.163" data-fill-palette-color="accent"></rect><path fill="#096a2e" d="M30.087 76.436c-0.467-0.199-0.896-0.45-1.281-0.739-0.018-0.014-0.035-0.026-0.052-0.04-0.371-0.286-0.696-0.61-0.969-0.965-0.023-0.028-0.044-0.061-0.066-0.09-0.112-0.153-0.215-0.312-0.306-0.474-0.018-0.03-0.035-0.058-0.051-0.089-0.1-0.187-0.186-0.38-0.257-0.575-0.013-0.038-0.022-0.074-0.035-0.112-0.054-0.161-0.098-0.327-0.131-0.496-0.011-0.057-0.022-0.11-0.031-0.166-0.033-0.206-0.055-0.414-0.057-0.63 0-0.182 0.061-0.361 0.177-0.518l3.06-4.142v-3.713h7.662v0.973h4.566v-0.973h7.66v0.973h4.104V39.817H13.758V87.49H31.59v-4.266h-1.502V76.436zM42.315 42.735h7.66v7.888h-7.66V42.735zM42.315 53.045h7.66v7.89h-7.66V53.045zM30.087 42.735h7.662v7.888h-7.662V42.735zM30.087 53.045h7.662v7.89h-7.662V53.045zM25.743 83.225h-7.663v-7.889h7.663V83.225zM25.743 71.577h-7.663v-7.89h7.663V71.577zM25.743 60.935h-7.663v-7.89h7.663V60.935zM25.743 50.624h-7.663v-7.888h7.663V50.624z" data-fill-palette-color="accent"></path><path fill="#096a2e" d="M55.265 34.286v4.545c0 0.09-0.021 0.176-0.048 0.259 0.026 0.083 0.048 0.17 0.048 0.26v25.31h18.603V29.763h-1.156v-9.205h-1.608v-4.766h-0.81v-2.359h-1.905v-1.785h-2.191V10.86h-0.799l-0.406-2.444-0.344-0.244-0.286-1.743h-0.345L62.51 0.088h-0.967l-1.505 6.341h-0.346l-0.299 1.743-0.346 0.244-0.406 2.444h-0.796v0.789h-2.193v1.785h-1.905v2.359h-0.798v4.766h-1.621v9.205h-1.156V33.3h3.907C54.732 33.3 55.265 33.741 55.265 34.286z" data-fill-palette-color="accent"></path></g></svg></g></svg></g></svg></g></svg></g></svg><rect width="395.52" height="73.84357392251951" fill="none" stroke="none" visibility="hidden"></rect></g></svg></g></svg>